# Rhino

mtllib Bubble_Big_v2.mtl
usemtl diffuse_0
v 0.18325241211172752 -0.12788067187947783 0.068784207437360773
v -0.19225997921708413 0.12209009949284046 0.026742775324905405
v 0.11110432747122459 0.19367045734243837 -0.052727382298385611
v 0.12795313003775291 -0.15130908217114958 -0.1258274164458866
v -0.1578117578912098 -0.035975446811147047 0.16788244280608941
v 0.12808335128542594 0.045122617969088244 0.19005046818050195
v -0.065573540298970417 -0.14642144169492277 -0.16574196484295081
v -0.14038107988122292 0.092589197793774294 -0.15833164718357276
v 0.13826552334543876 -0.16898933972997221 0.088382028374994287
v 0.13841678503271751 -0.18560514774007353 0.0096051239931826682
v 0.19491710069891624 -0.12367330666465313 0.012309270311320314
v 0.19601424339529686 -0.077569411954112363 0.099259384308183679
v 0.14151366356131248 -0.1099465432373956 0.15596035156043817
v 0.22139615121599845 -0.050851883253283811 0.025531379837716112
v -0.14933691617730446 0.16927052114325014 0.049078122113073358
v -0.13301957842591591 0.18420726631002871 -0.029476973827754965
v -0.19224014577153511 0.12057135824280231 -0.0286018100043888
v -0.22011865374329873 0.050708295890860247 -0.012463673617517462
v -0.20803184506181069 0.076104974487595248 0.057018734846437463
v -0.16430790421250649 0.11972565028982608 0.11750747296603967
v 0.1519549966168087 0.15015355322676149 -0.092658899392759314
v 0.08120356801268272 0.15407394442873446 -0.15185537901130866
v 0.055160413713423541 0.20606461737471071 -0.078896291222249976
v 0.033675230325428775 0.22348538611250368 0.00179801623447437
v 0.11380270424601249 0.19865166220980135 0.0080283487738912196
v 0.18334962728735618 0.13892827008085695 -0.012454005557870379
v 0.15565234723803215 -0.10161405231637509 -0.14120331373420905
v 0.19042292538401298 -0.11254886712712796 -0.068167425360357276
v 0.13661155405756645 -0.17452625360173735 -0.071116171445524207
v 0.074099253149000927 -0.16091209079904112 -0.14958247509208869
v 0.088032092184988781 -0.095741914471812559 -0.1891465481778736
v 0.061829379976956179 -0.20609080221337828 -0.079905531968748084
v -0.16813610193017312 0.034172857293657946 0.15714277360233117
v -0.20928114351514168 0.00084219732953606796 0.093277104530656824
v -0.17989639636758156 -0.077505821248717618 0.12741665575298119
v -0.10681311485055275 -0.043707338979668928 0.20179268750938226
v -0.099822957782777028 0.056318158397249865 0.20197610590251733
v -0.1194242804932911 -0.12641362275762114 0.1610741320589428
v 0.16151516440626792 0.083108691612057375 0.1498722437361126
v 0.091095003516642375 0.13572678540068117 0.16945081982406426
v 0.071268069775072856 0.058103865125946688 0.21258546445163537
v 0.13775553110357933 -0.021873138731546712 0.18726970288547326
v 0.19338926974054985 0.0038841302709504838 0.12848238680156518
v 0.060806813867060473 -0.039396064242549253 0.21947237882407952
v -0.077932995526822285 -0.10045980091971905 -0.1901778426429386
v 0.0038339169539939669 -0.094362379869647336 -0.20573072102276038
v -0.0054254739235658142 -0.15757399227304014 -0.16653333571163367
v -0.097400960295232014 -0.17704598035497221 -0.11427756365743827
v -0.14738799330476113 -0.11856700654906781 -0.13673098352161597
v -0.020723317532571027 -0.20705676998776945 -0.094626508321439734
v -0.089728933541806416 0.11846211377697437 -0.17524418201652717
v -0.082975883750947194 0.049019457885794329 -0.20438416269031714
v -0.15460897681001015 0.038115227708391833 -0.1641318347713108
v -0.17243541476014443 0.11223708663301914 -0.10541360792127799
v -0.11209294643882103 0.16907726798372713 -0.11125466939417075
v -0.20552168485406228 0.037795504668526339 -0.089070565666830054
v -0.21136933264020272 -0.043243849536605192 -0.070816754963075629
v -0.22397796508553808 -0.029386743789739919 0.014985440630639085
v -0.16369124945882149 -0.040531964859195066 -0.15519170429912757
v -0.18611798879388161 -0.12722165312451872 -0.047480266209518424
v -0.08433913138392754 -0.028556080421634031 -0.20740656521526527
v 0.0070611534018497971 -0.018813917299933744 -0.22288419273105811
v 0.0053399444867353943 0.06291275296526401 -0.21542225744930457
v 0.098255376548735424 0.071215232947640109 -0.19316779043880652
v 0.098699669570891185 -0.01556352607739718 -0.2033902701398487
v -0.0075251364770848247 0.14432040427046267 -0.17601229217258643
v -0.028360218523772428 0.20039858494120089 -0.1032429706713314
v -0.050914861975939939 0.21955177758055178 -0.016718638729130736
v -0.071887043087514119 0.20474432978945223 0.074234441254461297
v 0.015076374852327636 0.20876099739389864 0.092801116738641748
v 0.10948575589176826 0.18325782392340151 0.093298271630132684
v -0.090149839191468434 0.14925093028860537 0.15746545824798394
v -0.001796263518514106 0.15387625072317568 0.17414706978591729
v -0.015342409505279729 0.06246552441435306 0.22102932665141869
v -0.025722027539046476 -0.044706912597842527 0.22442941400798608
v -0.033499003170760343 -0.14280579414052519 0.18214599821361352
v 0.057703289420573046 -0.13550765242261442 0.18269664082320977
v -0.03748787638428993 -0.20640010561627897 0.09728891435655404
v 0.055389329076973727 -0.20095890190286192 0.10263489964994241
v -0.033719685642750928 -0.22514768864793333 -0.0026058323158080487
v 0.056130918891398242 -0.22142011847180876 0.0076012372562532515
v -0.12784807082894631 -0.17992843117398771 0.076344251964414606
v -0.12172161486628838 -0.19411748077554258 -0.022875521000301352
v -0.19447758492711373 -0.11481563921851666 0.047459002915943155
v 0.18553264740225486 0.11929790500717609 0.074265890155160913
v 0.22108105126139335 0.032949196288160967 0.048024487082088479
v 0.21716690364596061 0.055088533201985049 -0.041653703566467276
v 0.21733866933104209 -0.031684433927960706 -0.060756936337625495
v 0.17621182206389122 -0.019830493143029523 -0.14586453106609534
v 0.17716993692633323 0.068558259049229311 -0.13103021648136329
vn 0.80700749158859253 -0.53101271390914917 0.25838804244995117
vn -0.84151452779769897 0.53327387571334839 0.086442261934280396
vn 0.4552122950553894 0.85980075597763062 -0.23135349154472351
vn 0.53020298480987549 -0.65390342473983765 -0.53971761465072632
vn -0.68154740333557129 -0.11236391216516495 0.72309577465057373
vn 0.53010988235473633 0.16405004262924194 0.83190810680389404
vn -0.24518460035324097 -0.6408611536026001 -0.72744864225387573
vn -0.62511157989501953 0.37342897057533264 -0.68540960550308228
vn 0.57905417680740356 -0.73407924175262451 0.35471662878990173
vn 0.57989263534545898 -0.81450802087783813 0.017355514690279961
vn 0.85526913404464722 -0.51780128479003906 0.019913498312234879
vn 0.86696088314056396 -0.29475873708724976 0.40186575055122375
vn 0.59616005420684814 -0.45504623651504517 0.6614575982093811
vn 0.97851783037185669 -0.18809035420417786 0.084409229457378387
vn -0.63878190517425537 0.74616712331771851 0.18759597837924957
vn -0.56151968240737915 0.81729286909103394 -0.12933690845966339
vn -0.84081739187240601 0.52358978986740112 -0.13740397989749908
vn -0.97710740566253662 0.20210614800453186 -0.066439568996429443
vn -0.92353016138076782 0.31272441148757935 0.22202582657337189
vn -0.71867293119430542 0.50006550550460815 0.48316016793251038
vn 0.64768850803375244 0.64630341529846191 -0.40347427129745483
vn 0.32320830225944519 0.66755849123001099 -0.67074739933013916
vn 0.20050637423992157 0.91615349054336548 -0.34707352519035339
vn 0.12187975645065308 0.99253952503204346 0.0032658763229846954
vn 0.48090949654579163 0.87623119354248047 0.030740223824977875
vn 0.80391651391983032 0.59226351976394653 -0.054241638630628586
vn 0.67639130353927612 -0.39841395616531372 -0.619484543800354
vn 0.84359961748123169 -0.4605025053024292 -0.27618303894996643
vn 0.57916367053985596 -0.76485884189605713 -0.28206449747085571
vn 0.2767634391784668 -0.70010662078857422 -0.65821933746337891
vn 0.35287812352180481 -0.37742382287979126 -0.85617071390151978
vn 0.23625636100769043 -0.91305911540985107 -0.3324243426322937
vn -0.73332446813583374 0.15697599947452545 0.66150867938995361
vn -0.93220144510269165 0.011233443394303322 0.3617655336856842
vn -0.80395114421844482 -0.30310118198394775 0.51165634393692017
vn -0.43382364511489868 -0.15847212076187134 0.88695186376571655
vn -0.40960833430290222 0.23804555833339691 0.88065618276596069
vn -0.50181466341018677 -0.53298234939575195 0.68125754594802856
vn 0.69797873497009277 0.34227445721626282 0.62902611494064331
vn 0.36560219526290894 0.58350104093551636 0.72516310214996338
vn 0.26781496405601501 0.2284080982208252 0.93600475788116455
vn 0.58288305997848511 -0.10439028590917587 0.80582255125045776
vn 0.85350757837295532 0.016075801104307175 0.52083241939544678
vn 0.23400810360908508 -0.16343079507350922 0.95840001106262207
vn -0.3170936107635498 -0.40649989247322083 -0.85686022043228149
vn 0.021798398345708847 -0.37915945053100586 -0.92507457733154297
vn -0.0074968873523175716 -0.68977552652359009 -0.7239844799041748
vn -0.3976992666721344 -0.78346818685531616 -0.47750696539878845
vn -0.63811397552490234 -0.49127048254013062 -0.59284383058547974
vn -0.07776014506816864 -0.91497319936752319 -0.39595133066177368
vn -0.36499440670013428 0.51110947132110596 -0.77816849946975708
vn -0.33561199903488159 0.18661068379878998 -0.92333149909973145
vn -0.68390548229217529 0.13071136176586151 -0.71776586771011353
vn -0.76554065942764282 0.47250345349311829 -0.43667840957641602
vn -0.46792170405387878 0.7506103515625 -0.46651196479797363
vn -0.91102451086044312 0.14845342934131622 -0.38470244407653809
vn -0.936057448387146 -0.16854012012481689 -0.30885383486747742
vn -0.99215501546859741 -0.11559661477804184 0.047600608319044113
vn -0.71158838272094727 -0.15812449157238007 -0.68457186222076416
vn -0.81933397054672241 -0.5357927680015564 -0.20400477945804596
vn -0.34765616059303284 -0.11137405782938004 -0.93098390102386475
vn 0.027347652241587639 -0.06920953094959259 -0.9972272515296936
vn 0.021093260496854782 0.26368901133537292 -0.96437710523605347
vn 0.40833988785743713 0.29965561628341675 -0.86224418878555298
vn 0.41061767935752869 -0.051205795258283615 -0.91036868095397949
vn -0.029436390846967697 0.62484341859817505 -0.78019493818283081
vn -0.12104032188653946 0.88921737670898438 -0.44118213653564453
vn -0.21324390172958374 0.97445231676101685 -0.070496492087841034
vn -0.29776009917259216 0.90626603364944458 0.30003464221954346
vn 0.062239628285169601 0.92609286308288574 0.37212657928466797
vn 0.45676940679550171 0.80753880739212036 0.3731524646282196
vn -0.37673935294151306 0.64163988828659058 0.6681060791015625
vn -0.0090928962454199791 0.66577708721160889 0.74609529972076416
vn -0.06608060747385025 0.25466236472129822 0.96476960182189941
vn -0.10101927071809769 -0.1756935715675354 0.97924810647964478
vn -0.13285274803638458 -0.60757404565811157 0.78307336568832397
vn 0.22967344522476196 -0.57658207416534424 0.78409391641616821
vn -0.15275570750236511 -0.90663552284240723 0.39329090714454651
vn 0.21960610151290894 -0.88259387016296387 0.41569370031356812
vn -0.13846045732498169 -0.99016088247299194 -0.020250668749213219
vn 0.22417479753494263 -0.97432130575180054 0.021063957363367081
vn -0.54783010482788086 -0.78029155731201172 0.30170726776123047
vn -0.51550859212875366 -0.85115259885787964 -0.098944813013076782
vn -0.86358183622360229 -0.47368603944778442 0.17276573181152344
vn 0.80998021364212036 0.50904583930969238 0.29121196269989014
vn 0.97304815053939819 0.14070685207843781 0.18269893527030945
vn 0.95690280199050903 0.22728373110294342 -0.18077367544174194
vn 0.95803099870681763 -0.12093301117420197 -0.2599073052406311
vn 0.76728564500808716 -0.067697465419769287 -0.63772231340408325
vn 0.77092623710632324 0.28488972783088684 -0.56965833902359009
f 1//1 9//9 10//10 11//11
f 1//1 12//12 13//13 9//9
f 1//1 11//11 14//14 12//12
f 2//2 15//15 16//16 17//17
f 2//2 17//17 18//18 19//19
f 2//2 19//19 20//20 15//15
f 3//3 21//21 22//22 23//23
f 3//3 23//23 24//24 25//25
f 3//3 25//25 26//26 21//21
f 4//4 27//27 28//28 29//29
f 4//4 30//30 31//31 27//27
f 4//4 29//29 32//32 30//30
f 5//5 33//33 34//34 35//35
f 5//5 36//36 37//37 33//33
f 5//5 35//35 38//38 36//36
f 6//6 39//39 40//40 41//41
f 6//6 42//42 43//43 39//39
f 6//6 41//41 44//44 42//42
f 7//7 45//45 46//46 47//47
f 7//7 48//48 49//49 45//45
f 7//7 47//47 50//50 48//48
f 8//8 51//51 52//52 53//53
f 8//8 54//54 55//55 51//51
f 8//8 53//53 56//56 54//54
f 56//56 57//57 58//58 18//18
f 56//56 18//18 17//17 54//54
f 56//56 53//53 59//59 57//57
f 59//59 49//49 60//60 57//57
f 59//59 53//53 52//52 61//61
f 59//59 61//61 45//45 49//49
f 61//61 62//62 46//46 45//45
f 61//61 52//52 63//63 62//62
f 63//63 64//64 65//65 62//62
f 63//63 52//52 51//51 66//66
f 63//63 66//66 22//22 64//64
f 66//66 51//51 55//55 67//67
f 66//66 67//67 23//23 22//22
f 67//67 55//55 16//16 68//68
f 67//67 68//68 24//24 23//23
f 68//68 16//16 15//15 69//69
f 68//68 69//69 70//70 24//24
f 70//70 71//71 25//25 24//24
f 70//70 69//69 72//72 73//73
f 70//70 73//73 40//40 71//71
f 73//73 72//72 37//37 74//74
f 73//73 74//74 41//41 40//40
f 74//74 37//37 36//36 75//75
f 74//74 75//75 44//44 41//41
f 75//75 36//36 38//38 76//76
f 75//75 76//76 77//77 44//44
f 77//77 13//13 42//42 44//44
f 77//77 76//76 78//78 79//79
f 77//77 79//79 9//9 13//13
f 79//79 78//78 80//80 81//81
f 79//79 81//81 10//10 9//9
f 81//81 80//80 50//50 32//32
f 81//81 32//32 29//29 10//10
f 80//80 78//78 82//82 83//83
f 80//80 83//83 48//48 50//50
f 83//83 82//82 84//84 60//60
f 83//83 60//60 49//49 48//48
f 84//84 82//82 38//38 35//35
f 84//84 35//35 34//34 58//58
f 84//84 58//58 57//57 60//60
f 82//82 78//78 76//76 38//38
f 72//72 69//69 15//15 20//20
f 72//72 20//20 33//33 37//37
f 71//71 85//85 26//26 25//25
f 71//71 40//40 39//39 85//85
f 85//85 39//39 43//43 86//86
f 85//85 86//86 87//87 26//26
f 87//87 86//86 14//14 88//88
f 87//87 88//88 89//89 90//90
f 87//87 90//90 21//21 26//26
f 90//90 89//89 65//65 64//64
f 90//90 64//64 22//22 21//21
f 89//89 88//88 28//28 27//27
f 89//89 27//27 31//31 65//65
f 88//88 14//14 11//11 28//28
f 86//86 43//43 12//12 14//14
f 65//65 31//31 46//46 62//62
f 58//58 34//34 19//19 18//18
f 55//55 54//54 17//17 16//16
f 50//50 47//47 30//30 32//32
f 47//47 46//46 31//31 30//30
f 43//43 42//42 13//13 12//12
f 34//34 33//33 20//20 19//19
f 29//29 28//28 11//11 10//10
